<?xml version="1.0" standalone="no"?>
<!DOCTYPE svg PUBLIC "-//W3C//DTD SVG 20010904//EN"
 "http://www.w3.org/TR/2001/REC-SVG-20010904/DTD/svg10.dtd">
<svg version="1.0" xmlns="http://www.w3.org/2000/svg"
 width="693.000000pt" height="693.000000pt" viewBox="0 0 693.000000 693.000000"
 preserveAspectRatio="xMidYMid meet">

<g transform="translate(0.000000,693.000000) scale(0.100000,-0.100000)"
fill="#000000" stroke="none">
<path d="M1360 4802 c-19 -9 -43 -33 -55 -52 -19 -33 -20 -52 -20 -275 0 -223
1 -242 20 -275 53 -91 206 -93 258 -2 12 21 21 61 24 112 l6 80 -52 0 -51 0 0
-70 c0 -61 -3 -71 -23 -84 -29 -20 -66 -10 -78 21 -12 32 -12 404 0 436 12 31
49 41 78 21 19 -12 23 -23 23 -69 l0 -55 51 0 52 0 -6 66 c-4 36 -15 80 -25
98 -22 39 -75 66 -127 66 -22 0 -56 -8 -75 -18z"/>
<path d="M1730 4802 c-19 -9 -45 -32 -57 -51 -22 -33 -23 -41 -23 -276 0 -235
1 -243 23 -276 59 -88 198 -92 258 -8 24 34 24 36 24 284 0 248 0 250 -24 284
-42 59 -131 78 -201 43z m118 -100 c9 -11 12 -72 12 -223 0 -114 -3 -215 -6
-224 -11 -27 -53 -38 -80 -20 l-24 15 0 225 c0 220 0 224 22 239 25 18 56 13
76 -12z"/>
<path d="M3081 4802 c-19 -9 -44 -30 -55 -45 -20 -27 -21 -44 -24 -270 -3
-267 1 -287 61 -331 38 -28 139 -29 180 -2 50 33 60 68 65 219 l5 137 -77 0
-76 0 0 -45 c0 -42 2 -45 25 -45 l26 0 -3 -87 c-3 -83 -4 -88 -29 -102 -24
-13 -29 -13 -53 2 l-26 17 0 220 c0 208 1 221 21 241 14 14 27 18 42 14 34
-11 47 -34 47 -87 l0 -48 51 0 52 0 -7 67 c-9 84 -33 126 -86 147 -52 21 -97
20 -139 -2z"/>
<path d="M5394 4801 c-52 -24 -74 -68 -74 -151 0 -78 14 -105 111 -206 80 -84
99 -123 85 -179 -9 -35 -51 -51 -82 -30 -19 12 -24 24 -24 55 l0 40 -51 0 -52
0 6 -51 c12 -103 69 -153 165 -146 92 7 142 65 142 167 -1 76 -28 131 -103
202 -81 79 -97 104 -97 155 0 34 5 46 25 59 23 15 27 15 50 0 19 -12 25 -25
25 -51 l0 -35 51 0 52 0 -6 52 c-8 61 -30 96 -78 120 -44 23 -93 22 -145 -1z"/>
<path d="M2030 4475 l0 -337 113 3 c126 4 153 15 184 72 16 28 18 61 18 262 0
201 -2 234 -18 262 -31 57 -58 68 -184 72 l-113 3 0 -337z m177 239 c35 -10
43 -55 43 -239 0 -202 -7 -232 -56 -241 -66 -12 -64 -19 -64 239 0 129 3 237
7 240 8 8 40 9 70 1z"/>
<path d="M2420 4475 l0 -335 50 0 50 0 0 335 0 335 -50 0 -50 0 0 -335z"/>
<path d="M2600 4475 l0 -335 45 0 45 0 2 243 3 242 53 -205 c29 -113 58 -222
63 -242 10 -37 10 -38 59 -38 l50 0 0 335 0 335 -40 0 -40 0 0 -195 c0 -107
-3 -195 -8 -195 -4 0 -29 88 -56 195 l-48 195 -64 0 -64 0 0 -335z"/>
<path d="M3530 4475 l0 -335 140 0 140 0 0 45 0 44 -87 3 -88 3 -3 103 -3 102
71 0 70 0 0 45 0 44 -67 3 -68 3 0 90 0 90 88 3 87 3 0 44 0 45 -140 0 -140 0
0 -335z"/>
<path d="M3850 4797 c0 -16 88 -605 95 -634 5 -21 11 -23 70 -23 59 0 65 2 70
23 6 26 95 622 95 637 0 5 -20 10 -44 10 l-44 0 -10 -72 c-6 -40 -21 -153 -33
-250 -13 -98 -26 -178 -29 -178 -4 0 -19 96 -34 213 -42 325 -30 287 -87 287
-33 0 -49 -4 -49 -13z"/>
<path d="M4240 4475 l0 -335 140 0 140 0 0 45 0 45 -90 0 -90 0 0 105 0 105
70 0 70 0 0 45 0 45 -70 0 -70 0 0 95 0 95 90 0 90 0 0 45 0 45 -140 0 -140 0
0 -335z"/>
<path d="M4580 4475 l0 -335 45 0 45 0 2 243 3 242 53 -205 c29 -113 58 -222
63 -242 10 -37 10 -38 59 -38 l50 0 0 335 0 335 -40 0 -40 0 0 -195 c0 -107
-3 -195 -8 -195 -4 0 -29 88 -56 195 l-48 195 -64 0 -64 0 0 -335z"/>
<path d="M4960 4766 l0 -45 53 -3 52 -3 3 -287 2 -288 50 0 50 0 2 288 3 287
53 3 52 3 0 45 0 44 -160 0 -160 0 0 -44z"/>
<path d="M2643 3884 c-35 -17 -67 -61 -107 -147 -28 -58 -56 -83 -82 -73 -11
4 -9 -2 5 -23 35 -48 75 -44 122 13 15 19 16 19 46 -4 65 -47 155 -32 198 34
77 117 -55 262 -182 200z"/>
<path d="M4083 3879 c-74 -47 -83 -153 -19 -218 33 -32 42 -36 90 -36 41 0 62
6 86 24 l32 23 22 -25 c33 -39 56 -47 87 -31 15 7 29 21 33 29 9 23 8 25 -9
19 -23 -9 -43 13 -85 95 -21 42 -49 86 -61 98 -51 46 -124 56 -176 22z"/>
<path d="M3465 3868 c-9 -23 -135 -402 -135 -405 0 -2 15 -3 33 -3 l32 0 72
210 71 210 -34 0 c-19 0 -37 -6 -39 -12z"/>
<path d="M3138 3757 c-87 -49 -128 -78 -128 -89 0 -13 38 -37 130 -83 l130
-65 0 34 c0 32 -3 35 -85 72 -47 22 -85 41 -85 44 0 3 38 25 85 50 80 42 85
47 85 78 0 17 -1 32 -2 31 -2 0 -60 -33 -130 -72z"/>
<path d="M3610 3790 c0 -28 7 -33 85 -72 47 -23 85 -45 85 -48 0 -3 -37 -21
-83 -41 -76 -34 -82 -39 -85 -69 -2 -18 1 -31 6 -29 5 2 61 28 125 58 157 73
157 77 -2 165 -65 36 -121 66 -125 66 -3 0 -6 -14 -6 -30z"/>
<path d="M2482 3543 c-31 -12 -40 -61 -52 -281 -13 -250 -7 -296 49 -362 35
-43 112 -87 168 -96 35 -5 43 -3 57 17 9 13 16 29 16 35 0 6 -27 46 -60 89
-57 74 -60 80 -60 135 l0 58 88 35 c48 19 138 48 201 63 l113 28 -6 71 c-14
147 -19 169 -42 192 -23 23 -26 23 -241 22 -120 0 -224 -3 -231 -6z"/>
<path d="M3911 3524 c-12 -15 -21 -32 -22 -38 0 -6 -6 -58 -12 -116 l-12 -105
110 -27 c106 -26 257 -80 283 -101 15 -12 16 -91 0 -120 -6 -12 -33 -49 -60
-82 -50 -62 -59 -93 -32 -119 20 -21 43 -20 103 3 72 27 117 66 148 129 26 53
27 61 24 191 -1 75 -6 187 -10 248 -6 99 -10 116 -31 138 l-23 25 -223 0 -223
0 -20 -26z"/>
<path d="M3220 3250 c-188 -18 -385 -61 -507 -112 -61 -25 -73 -34 -73 -53 l0
-23 72 30 c83 35 255 80 378 100 55 8 176 13 345 13 224 0 277 -3 380 -22 139
-25 278 -64 353 -98 l53 -24 -3 27 c-3 24 -12 30 -93 61 -102 37 -259 75 -385
91 -118 15 -406 21 -520 10z"/>
<path d="M3121 3141 c-13 -3 -33 -18 -43 -31 -17 -24 -18 -35 -8 -180 6 -85
13 -174 16 -198 l5 -42 342 2 342 3 7 75 c4 41 8 136 10 210 l3 135 -35 17
c-31 16 -68 18 -325 17 -159 -1 -301 -4 -314 -8z m625 -163 c-4 -62 -9 -141
-13 -176 l-6 -62 -296 2 -296 3 -12 165 c-6 90 -9 168 -7 172 3 5 147 8 321 8
l316 0 -7 -112z"/>
<path d="M3402 2948 c-29 -29 -3 -72 40 -66 19 2 23 9 23 38 0 30 -4 35 -25
38 -14 2 -31 -3 -38 -10z"/>
<path d="M2423 2830 c4 -47 12 -183 19 -302 l12 -218 60 0 61 0 -3 161 c-2
130 0 160 10 156 7 -3 54 -23 103 -45 50 -22 142 -52 205 -68 63 -16 117 -30
119 -31 3 -2 29 -329 31 -380 0 -9 19 -13 60 -13 41 0 60 4 60 13 0 9 29 352
30 352 0 0 107 0 239 0 l238 0 7 -115 c4 -63 9 -145 13 -182 l6 -68 57 0 58 0
6 53 c3 28 11 115 17 192 6 77 14 143 18 146 3 3 57 18 120 33 63 15 155 46
205 67 50 22 97 43 104 46 9 4 12 -30 12 -151 l0 -156 60 0 c50 0 60 3 60 18
0 9 7 114 15 232 8 118 15 241 15 274 l0 59 -30 -38 c-16 -21 -30 -44 -30 -52
0 -28 -106 -118 -181 -155 -419 -203 -1224 -189 -1585 28 -77 46 -99 68 -126
123 -12 25 -33 60 -46 76 l-25 30 6 -85z"/>
<path d="M3090 2630 l0 -30 343 2 342 3 3 28 3 27 -345 0 -346 0 0 -30z"/>
</g>
</svg>
